<?xml version="1.0" standalone="no"?>
<!DOCTYPE svg PUBLIC "-//W3C//DTD SVG 20010904//EN"
 "http://www.w3.org/TR/2001/REC-SVG-20010904/DTD/svg10.dtd">
<svg version="1.0" xmlns="http://www.w3.org/2000/svg"
 width="453.000000pt" height="83.000000pt" viewBox="0 0 453.000000 83.000000"
 preserveAspectRatio="xMidYMid meet">

<g transform="translate(0.000000,83.000000) scale(0.100000,-0.100000)"
fill="#000000" stroke="none">
<path d="M171 587 c-10 -10 -3 -47 10 -47 5 0 23 9 41 20 39 24 49 25 42 5 -3
-8 -11 -13 -17 -12 -7 1 -12 -6 -12 -15 0 -9 -4 -20 -8 -24 -4 -4 -7 0 -7 9 0
10 -4 17 -10 17 -12 0 -13 -10 -1 -29 7 -11 13 -10 35 4 14 9 24 20 22 24 -8
12 12 34 33 38 11 1 23 -2 26 -8 11 -17 -2 -21 -27 -8 -20 11 -22 11 -10 -3
11 -14 9 -20 -10 -38 l-23 -22 23 7 c34 10 26 -12 -9 -24 -39 -13 -42 -14 -34
-1 3 6 1 10 -4 10 -14 0 -17 13 29 -120 l39 -115 40 -3 39 -3 28 86 c27 80 30
86 52 80 13 -3 21 -2 18 3 -8 14 17 32 32 23 8 -5 3 -14 -17 -29 -21 -15 -31
-18 -34 -9 -16 38 -3 -20 16 -79 l24 -69 37 0 38 0 45 125 c25 69 54 134 64
146 10 11 19 33 19 49 0 28 0 28 -52 21 -29 -3 -61 -6 -70 -6 -12 0 -18 -8
-18 -25 0 -18 5 -25 20 -25 26 0 25 -10 -4 -93 l-24 -68 -15 38 c-8 21 -20 55
-25 77 -10 34 -9 39 8 43 22 6 33 39 16 51 -6 5 -48 10 -93 11 l-83 2 0 -29
c0 -21 6 -31 20 -35 11 -3 20 -12 20 -21 0 -25 -41 -128 -48 -121 -4 4 -16 37
-28 73 -20 65 -20 67 -2 70 14 3 18 10 16 30 -3 27 -4 27 -80 28 -43 0 -82 -4
-87 -9z m45 -12 c-23 -17 -36 -19 -36 -6 0 5 8 12 18 14 32 9 37 6 18 -8z
m204 -5 c-28 -21 -42 -21 -48 1 -3 12 -2 12 6 0 8 -11 14 -11 33 3 33 22 39
20 9 -4z m62 -8 c-5 -13 -2 -13 18 1 30 21 41 22 34 2 -4 -8 -15 -15 -25 -15
-15 0 -18 -6 -16 -30 2 -17 7 -33 10 -36 9 -9 -2 -24 -16 -24 -7 0 -6 4 3 10
13 9 13 10 0 11 -8 1 -22 1 -30 0 -10 -1 -7 5 9 19 29 25 18 27 -14 2 -23 -18
-23 -19 -4 -31 11 -6 17 -16 14 -21 -4 -6 -11 -8 -16 -4 -5 3 -7 10 -4 15 3 5
-1 6 -9 3 -9 -3 -14 -9 -11 -14 2 -4 -7 -17 -20 -28 -14 -12 -25 -17 -25 -12
0 6 7 13 15 16 8 4 12 10 9 15 -3 6 0 17 8 26 9 12 9 15 1 9 -7 -4 -13 -2 -13
4 0 6 7 13 15 16 8 4 12 11 8 17 -3 5 -2 7 3 4 15 -9 37 9 41 33 l3 21 -30
-21 c-16 -12 -30 -18 -30 -13 0 11 47 40 65 40 8 0 11 -7 7 -15z m148 11 c0
-1 -10 -7 -21 -14 -13 -6 -19 -7 -15 -1 3 6 -2 13 -11 15 -10 2 -3 4 14 3 18
0 33 -2 33 -3z m56 -5 c-3 -22 -16 -36 -46 -52 -25 -12 -30 -12 -30 0 0 10 55
55 77 63 1 1 0 -5 -1 -11z m-431 -28 c3 -5 1 -10 -4 -10 -6 0 -11 5 -11 10 0
6 2 10 4 10 3 0 8 -4 11 -10z m65 -96 c0 -6 -11 -16 -25 -22 -32 -15 -35 -15
-35 -2 0 6 6 10 14 10 7 0 19 7 26 15 16 19 6 19 -24 -1 -17 -10 -26 -12 -31
-4 -4 6 8 16 27 24 33 14 47 8 48 -20z m286 -23 c-11 -4 -20 -15 -22 -24 -1
-10 2 -15 7 -11 5 3 7 10 4 15 -4 5 1 9 10 9 27 0 1 -34 -53 -69 -52 -33 -62
-37 -62 -22 0 5 17 18 38 28 20 11 39 29 41 39 5 27 21 44 40 43 13 0 12 -2
-3 -8z m-276 -10 c0 -11 -28 -35 -46 -37 -21 -3 -17 12 9 29 25 18 37 21 37 8z
m195 -1 c3 -5 -8 -16 -25 -25 -35 -18 -41 -5 -7 18 27 19 25 19 32 7z m-116
-33 c-66 -49 -109 -74 -114 -67 -3 6 -3 15 1 22 4 7 3 8 -4 4 -7 -4 -12 -3
-12 1 0 15 58 44 65 33 4 -6 16 -5 33 4 15 8 29 12 31 10 2 -2 2 -5 0 -7z
m126 4 c3 -5 -8 -16 -25 -24 -35 -18 -40 -7 -7 16 27 19 25 19 32 8z m-145
-57 c0 -4 -8 -13 -17 -21 -10 -8 -12 -12 -5 -8 6 3 12 2 12 -3 0 -5 -12 -14
-27 -21 -22 -10 -29 -9 -42 3 -13 14 -13 16 -1 16 8 0 26 9 40 20 26 20 40 25
40 14z m175 -4 c-3 -5 -2 -10 3 -10 6 0 8 -9 5 -19 -6 -22 -51 -37 -66 -22
-10 10 2 15 39 14 7 0 11 7 9 16 -3 17 3 31 11 31 3 0 2 -4 -1 -10z"/>
<path d="M1696 584 c-5 -13 -2 -15 11 -9 10 4 34 9 53 11 l35 3 -24 -19 c-24
-21 -46 -27 -37 -11 4 5 -3 7 -14 4 -20 -5 -20 -6 -3 -18 22 -15 39 -17 35 -3
-2 6 6 8 18 5 11 -3 18 -2 15 3 -3 4 1 13 9 19 11 10 14 4 12 -30 -1 -28 -6
-44 -16 -46 -13 -4 -13 -3 0 6 11 8 12 11 2 11 -7 0 -10 4 -7 10 3 6 -1 7 -10
3 -11 -4 -13 -8 -6 -12 8 -5 6 -13 -4 -27 -14 -18 -14 -18 -15 5 0 13 -3 21
-7 17 -4 -4 -9 -49 -10 -99 -1 -70 -6 -94 -17 -103 -9 -6 -16 -21 -16 -33 0
-20 5 -21 75 -21 73 0 75 1 75 25 0 16 -6 25 -15 25 -12 0 -15 14 -15 63 0 51
4 64 20 74 37 24 55 4 50 -57 -1 -14 2 -21 7 -17 4 5 8 13 8 18 0 6 14 19 31
29 l31 20 1 -41 c1 -22 -2 -38 -7 -35 -5 3 -11 -1 -14 -9 -4 -8 -1 -12 6 -9 7
2 13 -4 14 -16 2 -20 -24 -39 -74 -54 -34 -11 -29 16 7 37 32 19 42 41 13 30
-12 -5 -14 -3 -8 7 5 9 4 11 -3 6 -7 -4 -12 -16 -12 -27 0 -10 -7 -19 -15 -19
-9 0 -15 -9 -15 -25 0 -25 1 -25 80 -25 79 0 80 0 80 25 0 18 -5 25 -20 25
-18 0 -20 7 -20 70 l0 69 -30 -4 c-16 -2 -35 -6 -42 -10 -7 -4 -6 -1 2 7 23
20 25 42 3 34 -17 -7 -17 -6 -1 11 14 14 20 15 30 5 10 -10 10 -15 -1 -21 -7
-5 -9 -11 -4 -14 15 -9 36 10 30 27 -14 35 -119 45 -139 13 -4 -7 -8 16 -8 51
l0 62 -59 0 c-45 0 -60 -4 -65 -16z m204 -89 c0 -2 -10 -9 -22 -15 -22 -11
-22 -10 -4 4 21 17 26 19 26 11z m-115 -45 c-14 -15 -21 -17 -32 -9 -7 6 -13
14 -13 16 0 3 6 0 14 -6 10 -9 16 -8 26 4 7 8 15 15 18 15 3 0 -3 -9 -13 -20z
m25 -55 c0 -19 -4 -35 -9 -35 -6 0 -8 9 -6 20 2 11 0 18 -5 15 -4 -3 -7 -13
-5 -23 3 -22 -12 -52 -28 -52 -7 0 -6 4 3 10 12 8 12 10 1 10 -11 0 -11 3 0
17 8 9 9 14 3 10 -7 -4 -14 -1 -17 7 -7 18 20 42 61 55 1 1 2 -15 2 -34z m2
-90 c3 -14 3 -23 0 -20 -3 2 -12 -1 -20 -7 -20 -17 -82 -20 -82 -4 0 6 20 20
45 30 24 10 42 23 38 29 -3 6 -1 7 4 4 6 -4 13 -18 15 -32z"/>
<path d="M1506 559 c-3 -18 -13 -33 -25 -36 -38 -10 -52 -73 -15 -73 11 0 14
-17 14 -78 0 -97 14 -122 69 -122 52 0 83 30 79 78 -2 29 -7 37 -23 37 -12 0
-21 -8 -24 -20 -3 -17 -1 -18 13 -6 9 8 19 11 23 7 3 -3 1 -6 -6 -6 -7 0 -9
-5 -5 -12 4 -7 3 -8 -5 -4 -6 4 -14 1 -17 -8 -3 -8 -11 -13 -18 -10 -9 3 -10
21 -5 62 3 31 4 62 2 69 -3 7 8 13 29 15 28 2 33 7 33 28 0 21 -5 25 -30 25
-31 1 -30 -1 -34 68 -1 11 -9 17 -25 17 -18 0 -25 -7 -30 -31z m34 1 c-8 -5
-17 -7 -19 -4 -3 3 1 9 9 14 8 5 17 7 19 4 3 -3 -1 -9 -9 -14z m-3 -37 c-21
-24 -81 -59 -76 -45 5 13 82 71 88 66 2 -2 -3 -12 -12 -21z m59 -45 c4 -6 3
-8 -3 -5 -5 3 -22 -3 -39 -14 -16 -10 -23 -19 -16 -19 8 0 12 -6 9 -12 -2 -7
-10 -12 -16 -10 -7 1 -10 -2 -7 -7 3 -5 -1 -12 -10 -15 -24 -9 -25 -8 -6 14 9
12 17 25 17 30 0 6 14 19 30 30 36 24 32 23 41 8z m-46 -96 c0 -10 -6 -24 -12
-31 -10 -11 -10 -13 0 -7 22 13 13 -20 -13 -44 -14 -13 -25 -22 -26 -19 -8 44
-8 59 2 59 6 0 9 -7 5 -15 -3 -8 -1 -15 4 -15 14 0 21 18 10 25 -6 4 -8 11 -5
16 3 5 -1 6 -9 3 -24 -9 -19 11 7 29 29 21 37 21 37 -1z m55 -98 c-29 -21 -65
-28 -78 -15 -8 8 -7 11 6 11 9 0 17 3 17 8 0 4 17 8 38 9 35 2 36 1 17 -13z"/>
<path d="M1168 511 c-49 -10 -68 -27 -68 -62 0 -21 7 -32 24 -41 35 -16 56 -4
56 32 0 30 13 37 38 21 27 -17 8 -46 -38 -60 -66 -20 -74 -25 -85 -55 -22 -64
62 -120 124 -83 25 15 30 15 41 2 16 -20 77 -19 97 1 9 8 16 32 17 52 1 31 -2
37 -19 37 -11 0 -20 -7 -21 -15 -3 -45 -8 -25 -13 49 -5 75 -9 86 -31 102 -31
23 -73 30 -122 20z m92 -15 c34 -13 34 -13 12 -25 -12 -6 -28 -8 -35 -4 -6 4
-23 9 -37 11 -34 5 -37 10 -9 21 30 12 27 12 69 -3z m-116 -38 c-5 -8 -2 -9 9
-5 12 5 17 1 17 -12 0 -19 -25 -31 -48 -23 -10 3 -10 7 -1 18 9 11 9 14 0 14
-7 0 -9 5 -6 10 3 6 13 10 21 10 9 0 12 -5 8 -12z m166 -12 c0 -14 -154 -109
-177 -109 -9 0 -10 -4 -2 -13 6 -7 18 -10 26 -7 11 4 14 2 9 -5 -4 -8 0 -12
11 -12 17 -1 17 -2 -1 -15 -11 -8 -16 -15 -10 -15 13 0 84 49 84 58 0 4 14 16
30 25 22 14 30 15 30 5 0 -14 -111 -90 -133 -91 -42 -1 -50 3 -36 20 13 15 12
15 -8 5 -17 -9 -22 -9 -27 3 -11 30 12 85 36 85 6 0 4 -8 -3 -17 -11 -13 -5
-12 22 5 20 12 43 22 52 22 8 0 17 4 19 9 2 8 64 56 76 60 1 1 2 -5 2 -13z m0
-36 c0 -11 -60 -44 -67 -36 -3 3 10 14 28 25 39 24 39 24 39 11z m-70 -65 c0
-14 -29 -35 -49 -35 -17 0 -13 28 7 39 25 15 42 13 42 -4z m56 -51 c-17 -12
-17 -14 -4 -14 9 0 20 5 23 10 4 6 11 8 16 5 5 -4 9 -2 9 3 0 6 6 12 14 15 9
4 12 0 9 -13 -7 -26 -58 -43 -83 -28 -17 11 -17 12 4 29 11 9 23 15 26 12 3
-2 -4 -11 -14 -19z"/>
<path d="M830 492 c-44 -22 -60 -53 -60 -119 0 -81 47 -123 138 -123 41 0 55
5 81 29 37 34 42 71 10 71 -12 0 -32 -11 -45 -25 -35 -38 -88 -27 -96 20 -3
22 -7 21 115 24 l58 1 -6 38 c-10 56 -62 102 -117 102 -24 0 -59 -8 -78 -18z
m131 -13 c3 -6 10 -10 15 -9 5 1 9 -3 11 -9 1 -7 -1 -7 -3 -2 -6 12 -34 3 -34
-11 0 -5 5 -6 12 -2 7 4 8 3 4 -5 -9 -14 -26 -5 -26 14 0 27 -64 29 -85 2 -16
-19 -66 -49 -73 -43 -8 9 9 24 65 57 48 29 98 33 114 8z m-31 -34 c7 -8 9 -22
6 -31 -5 -13 0 -12 29 5 42 25 42 25 42 9 0 -7 2 -20 4 -28 3 -9 -5 -16 -21
-18 -25 -4 -25 -4 -6 17 24 26 16 27 -26 1 -35 -21 -63 -26 -72 -11 -3 5 2 8
11 7 9 0 18 4 20 10 2 7 -7 12 -22 12 -33 0 -41 8 -25 27 16 19 44 19 60 0z
m-70 -35 c13 -9 12 -13 -5 -26 -11 -9 -32 -22 -47 -30 -27 -14 -28 -14 -26 11
2 22 15 30 41 26 4 0 6 2 6 7 -4 24 7 28 31 12z m-10 -68 c0 -5 -11 -14 -25
-20 -32 -15 -35 -15 -35 -2 0 6 9 10 19 10 11 0 23 5 26 10 8 12 15 13 15 2z
m140 -33 c-14 -10 -32 -25 -40 -33 -14 -12 -38 -13 -98 -3 -38 6 -46 22 -17
35 23 11 26 10 23 -6 -4 -26 63 -17 109 14 41 28 61 22 23 -7z"/>
<path d="M2153 495 c-46 -20 -64 -53 -64 -120 -1 -51 2 -61 29 -88 25 -25 41
-31 87 -35 65 -5 100 9 121 50 20 38 18 48 -12 48 -16 0 -34 -10 -46 -25 -30
-38 -82 -27 -90 20 -3 21 -6 21 110 24 l52 1 0 39 c0 80 -98 125 -187 86z m93
-4 c-4 -5 3 -7 14 -4 11 3 20 0 20 -6 0 -6 5 -10 11 -8 6 1 13 -4 15 -11 1 -7
0 -8 -2 -3 -3 6 -14 7 -29 1 -15 -6 -25 -5 -27 1 -6 17 -49 18 -66 1 -27 -27
-73 -54 -80 -48 -8 9 10 25 65 57 46 28 90 39 79 20z m4 -51 c11 -21 11 -22
-20 -22 -64 0 -65 0 -45 22 10 11 26 20 36 20 10 0 23 -9 29 -20z m37 4 c-3
-3 -12 -4 -19 -1 -8 3 -5 6 6 6 11 1 17 -2 13 -5z m43 -34 c0 -26 -4 -30 -26
-30 l-26 0 23 20 c31 25 18 25 -23 0 -36 -21 -78 -27 -78 -9 0 5 4 8 9 4 5 -3
12 -1 16 4 3 6 11 8 18 6 7 -3 26 4 42 14 41 26 45 26 45 -9z m-140 -8 c0 -7
-30 -29 -62 -47 -27 -15 -28 -15 -26 10 2 20 7 25 20 22 10 -3 21 0 25 5 4 7
1 8 -8 3 -12 -7 -12 -6 -1 7 11 14 52 14 52 0z m-20 -60 c0 -5 -11 -14 -25
-20 -32 -15 -35 -15 -35 -2 0 6 9 10 19 10 11 0 23 5 26 10 8 12 15 13 15 2z
m140 -33 c-14 -10 -32 -26 -41 -34 -9 -8 -29 -15 -46 -15 -31 0 -59 21 -46 34
4 4 -5 3 -20 -3 -33 -13 -37 1 -4 16 16 8 25 7 34 -3 10 -10 10 -14 0 -18 -7
-3 6 -3 27 1 22 3 55 17 74 30 41 27 59 21 22 -8z"/>
<path d="M2550 491 c-6 -11 -9 -12 -10 -3 0 10 -17 12 -62 10 -57 -3 -63 -5
-66 -25 -3 -18 2 -23 17 -23 22 0 23 -4 26 -85 1 -53 -3 -65 -27 -65 -14 0
-19 -6 -16 -22 3 -21 9 -23 77 -26 41 -2 80 -1 87 2 18 7 6 43 -17 49 -16 4
-19 14 -19 64 0 68 7 82 27 53 27 -38 83 -16 83 32 0 44 -79 74 -100 39z m-90
-11 c-8 -5 -22 -10 -30 -10 -13 0 -13 1 0 10 8 5 22 10 30 10 13 0 13 -1 0
-10z m156 -16 c-30 -21 -44 -16 -17 7 13 11 27 17 30 13 3 -3 -3 -12 -13 -20z
m-131 6 c-3 -5 -2 -10 4 -10 5 0 13 5 16 10 3 6 11 10 17 10 6 0 5 -7 -3 -17
-8 -10 -9 -14 -2 -10 6 4 14 3 18 -3 3 -5 1 -10 -5 -10 -6 0 -8 -5 -5 -10 4
-6 3 -10 -2 -9 -21 4 -32 -2 -32 -18 -1 -30 -7 -62 -13 -68 -3 -4 -5 14 -3 39
1 25 -1 46 -5 46 -3 0 -7 7 -7 15 0 8 4 15 9 15 4 0 7 3 7 8 -2 12 1 22 7 22
3 0 2 -4 -1 -10z m155 -30 c0 -13 -32 -28 -48 -23 -10 4 -6 9 10 18 29 16 38
18 38 5z m-110 -64 c0 -3 -4 -8 -10 -11 -5 -3 -10 -1 -10 4 0 6 5 11 10 11 6
0 10 -2 10 -4z m-26 -83 c-17 -13 -41 -22 -59 -22 -17 1 -22 3 -12 6 9 2 17 8
17 13 0 5 17 21 38 35 33 23 37 23 41 8 2 -10 -9 -27 -25 -40z m64 -15 c-4
-11 -68 -22 -68 -12 0 6 41 23 58 23 8 1 12 -4 10 -11z"/>
<path d="M2483 435 c0 -8 4 -12 9 -9 5 3 6 10 3 15 -9 13 -12 11 -12 -6z"/>
<path d="M1925 390 c-3 -5 -1 -10 5 -10 6 0 8 -5 4 -12 -5 -9 -3 -9 9 1 9 7
14 17 11 22 -7 12 -21 11 -29 -1z"/>
</g>
</svg>
